<svg fill="none" height="200" width="200" xmlns="http://www.w3.org/2000/svg" viewBox="20 10 55 50">     <circle cx="45" cy="35" r="25" fill="url(#gradient1)" opacity="0.2"/>     <circle cx="55" cy="35" r="20" fill="url(#gradient3)" opacity="0.15"/>     <g transform="translate(8, 8)">       <path d="M18 20 L22 16 L26 20 L26 24 L32 30 L28 34 L22 28 L18 24 Z" fill="url(#gradient2)" stroke="url(#gradient3)" stroke-width="1"/>       <path d="M16 16 L17 18 L16 20 L14 18 Z" fill="url(#gradient4)"/>       <path d="M34 30 L36 32 L34 34 L32 32 Z" fill="url(#gradient4)"/>       <rect x="38" y="28" width="5" height="12" rx="2" fill="url(#gradient2)"/>       <rect x="45" y="22" width="5" height="18" rx="2" fill="url(#gradient3)"/>       <rect x="52" y="16" width="5" height="24" rx="2" fill="url(#gradient4)"/>       <path d="M57 10 L62 15 L57 20 Z" fill="url(#gradient4)"/>     </g>     <defs>       <linearGradient id="gradient1" x1="0%" y1="0%" x2="100%" y2="100%">         <stop offset="0%" stop-color="#3b82f6"/>         <stop offset="100%" stop-color="#8b5cf6"/>       </linearGradient>       <linearGradient id="gradient2" x1="0%" y1="0%" x2="100%" y2="100%">         <stop offset="0%" stop-color="#1d4ed8"/>         <stop offset="100%" stop-color="#7c3aed"/>       </linearGradient>       <linearGradient id="gradient3" x1="0%" y1="0%" x2="100%" y2="100%">         <stop offset="0%" stop-color="#06b6d4"/>         <stop offset="100%" stop-color="#3b82f6"/>       </linearGradient>       <linearGradient id="gradient4" x1="0%" y1="0%" x2="100%" y2="0%">         <stop offset="0%" stop-color="#f59e0b"/>         <stop offset="50%" stop-color="#ec4899"/>         <stop offset="100%" stop-color="#8b5cf6"/>       </linearGradient>     </defs>   </svg>